<?xml version='1.0' encoding='iso-8859-1'?>
<!DOCTYPE svg PUBLIC '-//W3C//DTD SVG 1.1//EN' 'http://www.w3.org/Graphics/SVG/1.1/DTD/svg11.dtd'>
<!-- Uploaded to: SVG Repo, www.svgrepo.com, Generator: SVG Repo Mixer Tools -->
<svg fill="#000000" height="800px" width="800px" version="1.1" xmlns="http://www.w3.org/2000/svg" viewBox="0 0 235.32 235.32" xmlns:xlink="http://www.w3.org/1999/xlink" enable-background="new 0 0 235.32 235.32">
  <path d="m204.738,118.109c-8.042-10.534-20.072-22.499-30.95-26.649-2.433-22.924-18.665-41.776-40.208-48.093l30.565-30.564c2.929-2.929 2.929-7.678 0-10.607-2.93-2.929-7.678-2.929-10.607,0l-35.786,35.785-35.476-35.474c-2.93-2.929-7.678-2.929-10.607,2.22045e-15-2.929,2.929-2.929,7.678 0,10.606l30.255,30.253c-21.521,6.312-37.741,25.132-40.199,48.024-10.928,4.082-23.052,16.124-31.142,26.719-8.511,11.147-22.788,33.768-22.788,60.021 0,18.913 15.388,34.299 34.301,34.299 16.951,0 31.063-12.365 33.807-28.547 8.722,9.659 20.739,16.275 34.26,18.085v25.854c0,4.142 3.357,7.5 7.5,7.5 4.143,0 7.5-3.358 7.5-7.5v-25.854c13.52-1.81 25.537-8.426 34.258-18.085 2.745,16.183 16.855,28.547 33.807,28.547 18.912,0 34.299-15.386 34.299-34.299-0.002-26.254-14.279-48.874-22.789-60.021zm-45.81-3.779h-82.533v-9.383h82.533v9.383zm-82.533,15h82.533v9.384h-82.533v-9.384zm41.357-73.241c20.243,0 37.123,14.623 40.663,33.858h-81.326c3.54-19.235 20.42-33.858 40.663-33.858zm-56.357,122.04c0,10.642-8.657,19.299-19.299,19.299-10.642,0-19.301-8.657-19.301-19.299 0-31.217 24.718-59.914 38.6-69.662v37.747 31.915zm56.267,9.352c-20.193,0-37.033-14.583-40.572-33.767h81.143c-3.54,19.184-20.378,33.767-40.571,33.767zm75.565,9.947c-10.642,0-19.299-8.657-19.299-19.299v-31.915-37.747c13.881,9.748 38.598,38.445 38.598,69.662-0.001,10.642-8.658,19.299-19.299,19.299z"/>
</svg>